<mxfile host="app.diagrams.net" modified="2024-02-14T19:46:34.337Z" agent="Mozilla/5.0 (Windows NT 10.0; Win64; x64) AppleWebKit/537.36 (KHTML, like Gecko) Chrome/121.0.0.0 Safari/537.36" etag="_qfirzg_KijAfAx2KJvi" version="23.1.4" type="github">
  <diagram name="Page-1" id="97916047-d0de-89f5-080d-49f4d83e522f">
    <mxGraphModel dx="4153" dy="1513" grid="1" gridSize="10" guides="1" tooltips="1" connect="1" arrows="1" fold="1" page="1" pageScale="1.5" pageWidth="1169" pageHeight="827" background="none" math="0" shadow="0">
      <root>
        <mxCell id="0" />
        <mxCell id="1" parent="0" />
        <mxCell id="2" value="MyApp" style="rounded=1;fillColor=#10739E;strokeColor=none;shadow=1;gradientColor=none;fontStyle=1;fontColor=#FFFFFF;fontSize=14;" parent="1" vertex="1">
          <mxGeometry x="672" y="205.5" width="200" height="60" as="geometry" />
        </mxCell>
        <mxCell id="3" value="MaterialApp" style="rounded=1;fillColor=#10739E;strokeColor=none;shadow=1;gradientColor=none;fontStyle=1;fontColor=#FFFFFF;fontSize=14;" parent="1" vertex="1">
          <mxGeometry x="662" y="345.5" width="220" height="60" as="geometry" />
        </mxCell>
        <mxCell id="8" value="Scaffold" style="rounded=1;fillColor=#10739E;strokeColor=none;shadow=1;gradientColor=none;fontStyle=1;fontColor=#FFFFFF;fontSize=14;" parent="1" vertex="1">
          <mxGeometry x="672" y="440" width="200" height="50" as="geometry" />
        </mxCell>
        <mxCell id="9" value="Container" style="rounded=1;fillColor=#10739E;strokeColor=none;shadow=1;gradientColor=none;fontStyle=1;fontColor=#FFFFFF;fontSize=14;" parent="1" vertex="1">
          <mxGeometry x="672" y="540" width="200" height="60" as="geometry" />
        </mxCell>
        <mxCell id="0LnKOVC-JupL4AvzDja9-72" style="edgeStyle=orthogonalEdgeStyle;rounded=0;orthogonalLoop=1;jettySize=auto;html=1;entryX=0.5;entryY=1;entryDx=0;entryDy=0;" edge="1" parent="1" source="13" target="14">
          <mxGeometry relative="1" as="geometry" />
        </mxCell>
        <mxCell id="13" value="column&#xa;\" style="rounded=1;fillColor=#10739E;strokeColor=none;shadow=1;gradientColor=none;fontStyle=1;fontColor=#FFFFFF;fontSize=14;" parent="1" vertex="1">
          <mxGeometry x="1170" y="910" width="200" height="60" as="geometry" />
        </mxCell>
        <mxCell id="14" value="Padding" style="rounded=1;fillColor=#10739E;strokeColor=none;shadow=1;gradientColor=none;fontStyle=1;fontColor=#FFFFFF;fontSize=14;" parent="1" vertex="1">
          <mxGeometry x="950" y="800" width="200" height="60" as="geometry" />
        </mxCell>
        <mxCell id="21" value="Positioned" style="rounded=1;fillColor=#10739E;strokeColor=none;shadow=1;gradientColor=none;fontStyle=1;fontColor=#FFFFFF;fontSize=14;" parent="1" vertex="1">
          <mxGeometry x="270" y="1140" width="200" height="50" as="geometry" />
        </mxCell>
        <mxCell id="25" value="Column" style="rounded=1;fillColor=#10739E;strokeColor=none;shadow=1;gradientColor=none;fontStyle=1;fontColor=#FFFFFF;fontSize=14;" parent="1" vertex="1">
          <mxGeometry x="682" y="670" width="200" height="60" as="geometry" />
        </mxCell>
        <mxCell id="26" value="Container" style="rounded=1;fillColor=#10739E;strokeColor=none;shadow=1;gradientColor=none;fontStyle=1;fontColor=#FFFFFF;fontSize=14;" parent="1" vertex="1">
          <mxGeometry x="430" y="800" width="200" height="60" as="geometry" />
        </mxCell>
        <mxCell id="27" value="Stack" style="rounded=1;fillColor=#10739E;strokeColor=none;shadow=1;gradientColor=none;fontStyle=1;fontColor=#FFFFFF;fontSize=14;" parent="1" vertex="1">
          <mxGeometry x="430" y="920" width="200" height="60" as="geometry" />
        </mxCell>
        <mxCell id="29" value="" style="edgeStyle=elbowEdgeStyle;elbow=vertical;strokeWidth=4;endArrow=block;endFill=1;fontStyle=1;strokeColor=#23445D;" parent="1" source="2" target="3" edge="1">
          <mxGeometry x="22" y="165.5" width="100" height="100" as="geometry">
            <mxPoint x="22" y="265.5" as="sourcePoint" />
            <mxPoint x="122" y="165.5" as="targetPoint" />
          </mxGeometry>
        </mxCell>
        <mxCell id="31" value="" style="edgeStyle=elbowEdgeStyle;elbow=vertical;strokeWidth=4;endArrow=block;endFill=1;fontStyle=1;strokeColor=#23445D;" parent="1" source="3" edge="1">
          <mxGeometry x="22" y="165.5" width="100" height="100" as="geometry">
            <mxPoint x="22" y="265.5" as="sourcePoint" />
            <mxPoint x="772" y="450" as="targetPoint" />
          </mxGeometry>
        </mxCell>
        <mxCell id="38" value="" style="edgeStyle=elbowEdgeStyle;elbow=vertical;strokeWidth=4;endArrow=block;endFill=1;fontStyle=1;strokeColor=#23445D;" parent="1" source="8" edge="1">
          <mxGeometry x="62" y="165.5" width="100" height="100" as="geometry">
            <mxPoint x="62" y="265.5" as="sourcePoint" />
            <mxPoint x="772" y="550" as="targetPoint" />
          </mxGeometry>
        </mxCell>
        <mxCell id="39" value="" style="edgeStyle=elbowEdgeStyle;elbow=vertical;strokeWidth=4;endArrow=block;endFill=1;fontStyle=1;strokeColor=#23445D;entryX=0.451;entryY=0.051;entryDx=0;entryDy=0;entryPerimeter=0;" parent="1" source="9" target="25" edge="1">
          <mxGeometry x="62" y="175.5" width="100" height="100" as="geometry">
            <mxPoint x="62" y="275.5" as="sourcePoint" />
            <mxPoint x="770" y="680" as="targetPoint" />
          </mxGeometry>
        </mxCell>
        <mxCell id="43" value="" style="edgeStyle=elbowEdgeStyle;elbow=vertical;strokeWidth=4;endArrow=block;endFill=1;fontStyle=1;strokeColor=#23445D;entryX=0.5;entryY=0;entryDx=0;entryDy=0;" parent="1" target="14" edge="1">
          <mxGeometry x="62" y="175.5" width="100" height="100" as="geometry">
            <mxPoint x="790" y="730" as="sourcePoint" />
            <mxPoint x="1238.45" y="635.5" as="targetPoint" />
            <Array as="points">
              <mxPoint x="1040" y="770" />
            </Array>
          </mxGeometry>
        </mxCell>
        <mxCell id="52" value="" style="edgeStyle=elbowEdgeStyle;elbow=vertical;strokeWidth=4;endArrow=block;endFill=1;fontStyle=1;strokeColor=#23445D;" parent="1" source="25" target="26" edge="1">
          <mxGeometry x="72" y="185.5" width="100" height="100" as="geometry">
            <mxPoint x="72" y="285.5" as="sourcePoint" />
            <mxPoint x="172" y="185.5" as="targetPoint" />
          </mxGeometry>
        </mxCell>
        <mxCell id="53" value="" style="edgeStyle=elbowEdgeStyle;elbow=vertical;strokeWidth=4;endArrow=block;endFill=1;fontStyle=1;strokeColor=#23445D;" parent="1" source="26" target="27" edge="1">
          <mxGeometry x="72" y="195.5" width="100" height="100" as="geometry">
            <mxPoint x="72" y="295.5" as="sourcePoint" />
            <mxPoint x="172" y="195.5" as="targetPoint" />
          </mxGeometry>
        </mxCell>
        <mxCell id="0LnKOVC-JupL4AvzDja9-56" style="edgeStyle=orthogonalEdgeStyle;rounded=0;orthogonalLoop=1;jettySize=auto;html=1;exitX=0.75;exitY=0;exitDx=0;exitDy=0;entryX=0.607;entryY=0.067;entryDx=0;entryDy=0;entryPerimeter=0;" edge="1" parent="1" source="13" target="13">
          <mxGeometry relative="1" as="geometry" />
        </mxCell>
        <mxCell id="0LnKOVC-JupL4AvzDja9-58" style="edgeStyle=orthogonalEdgeStyle;rounded=0;orthogonalLoop=1;jettySize=auto;html=1;entryX=0.15;entryY=1.089;entryDx=0;entryDy=0;entryPerimeter=0;" edge="1" parent="1" source="21" target="27">
          <mxGeometry relative="1" as="geometry" />
        </mxCell>
        <mxCell id="0LnKOVC-JupL4AvzDja9-61" style="edgeStyle=orthogonalEdgeStyle;rounded=0;orthogonalLoop=1;jettySize=auto;html=1;" edge="1" parent="1" source="0LnKOVC-JupL4AvzDja9-60">
          <mxGeometry relative="1" as="geometry">
            <mxPoint x="530" y="990" as="targetPoint" />
          </mxGeometry>
        </mxCell>
        <mxCell id="0LnKOVC-JupL4AvzDja9-60" value="Positioned" style="rounded=1;fillColor=#10739E;strokeColor=none;shadow=1;gradientColor=none;fontStyle=1;fontColor=#FFFFFF;fontSize=14;" vertex="1" parent="1">
          <mxGeometry x="430" y="1200" width="200" height="50" as="geometry" />
        </mxCell>
        <mxCell id="0LnKOVC-JupL4AvzDja9-63" style="edgeStyle=orthogonalEdgeStyle;rounded=0;orthogonalLoop=1;jettySize=auto;html=1;" edge="1" parent="1" source="0LnKOVC-JupL4AvzDja9-62">
          <mxGeometry relative="1" as="geometry">
            <mxPoint x="590" y="990" as="targetPoint" />
          </mxGeometry>
        </mxCell>
        <mxCell id="0LnKOVC-JupL4AvzDja9-62" value="Positioned" style="rounded=1;fillColor=#10739E;strokeColor=none;shadow=1;gradientColor=none;fontStyle=1;fontColor=#FFFFFF;fontSize=14;" vertex="1" parent="1">
          <mxGeometry x="620" y="1140" width="200" height="50" as="geometry" />
        </mxCell>
        <mxCell id="0LnKOVC-JupL4AvzDja9-65" style="edgeStyle=orthogonalEdgeStyle;rounded=0;orthogonalLoop=1;jettySize=auto;html=1;entryX=0.5;entryY=1;entryDx=0;entryDy=0;" edge="1" parent="1" source="0LnKOVC-JupL4AvzDja9-64" target="0LnKOVC-JupL4AvzDja9-62">
          <mxGeometry relative="1" as="geometry" />
        </mxCell>
        <mxCell id="0LnKOVC-JupL4AvzDja9-64" value="Container" style="rounded=1;fillColor=#10739E;strokeColor=none;shadow=1;gradientColor=none;fontStyle=1;fontColor=#FFFFFF;fontSize=14;" vertex="1" parent="1">
          <mxGeometry x="620" y="1310" width="200" height="50" as="geometry" />
        </mxCell>
        <mxCell id="0LnKOVC-JupL4AvzDja9-68" value="" style="edgeStyle=orthogonalEdgeStyle;rounded=0;orthogonalLoop=1;jettySize=auto;html=1;" edge="1" parent="1" source="0LnKOVC-JupL4AvzDja9-67" target="0LnKOVC-JupL4AvzDja9-64">
          <mxGeometry relative="1" as="geometry" />
        </mxCell>
        <mxCell id="0LnKOVC-JupL4AvzDja9-67" value="Center" style="rounded=1;fillColor=#10739E;strokeColor=none;shadow=1;gradientColor=none;fontStyle=1;fontColor=#FFFFFF;fontSize=14;" vertex="1" parent="1">
          <mxGeometry x="620" y="1440" width="200" height="50" as="geometry" />
        </mxCell>
        <mxCell id="0LnKOVC-JupL4AvzDja9-70" value="" style="edgeStyle=orthogonalEdgeStyle;rounded=0;orthogonalLoop=1;jettySize=auto;html=1;" edge="1" parent="1" source="0LnKOVC-JupL4AvzDja9-69" target="0LnKOVC-JupL4AvzDja9-67">
          <mxGeometry relative="1" as="geometry" />
        </mxCell>
        <mxCell id="0LnKOVC-JupL4AvzDja9-69" value="Text" style="rounded=1;fillColor=#10739E;strokeColor=none;shadow=1;gradientColor=none;fontStyle=1;fontColor=#FFFFFF;fontSize=14;" vertex="1" parent="1">
          <mxGeometry x="620" y="1560" width="200" height="50" as="geometry" />
        </mxCell>
        <mxCell id="0LnKOVC-JupL4AvzDja9-71" style="edgeStyle=orthogonalEdgeStyle;rounded=0;orthogonalLoop=1;jettySize=auto;html=1;exitX=0.75;exitY=0;exitDx=0;exitDy=0;entryX=0.627;entryY=0.133;entryDx=0;entryDy=0;entryPerimeter=0;" edge="1" parent="1" source="13" target="13">
          <mxGeometry relative="1" as="geometry" />
        </mxCell>
        <mxCell id="0LnKOVC-JupL4AvzDja9-75" style="edgeStyle=orthogonalEdgeStyle;rounded=0;orthogonalLoop=1;jettySize=auto;html=1;entryX=0.783;entryY=1.278;entryDx=0;entryDy=0;entryPerimeter=0;" edge="1" parent="1" source="0LnKOVC-JupL4AvzDja9-73" target="13">
          <mxGeometry relative="1" as="geometry" />
        </mxCell>
        <mxCell id="0LnKOVC-JupL4AvzDja9-73" value="Container" style="rounded=1;fillColor=#10739E;strokeColor=none;shadow=1;gradientColor=none;fontStyle=1;fontColor=#FFFFFF;fontSize=14;" vertex="1" parent="1">
          <mxGeometry x="1220" y="1310" width="200" height="50" as="geometry" />
        </mxCell>
        <mxCell id="0LnKOVC-JupL4AvzDja9-74" value="Container" style="rounded=1;fillColor=#10739E;strokeColor=none;shadow=1;gradientColor=none;fontStyle=1;fontColor=#FFFFFF;fontSize=14;" vertex="1" parent="1">
          <mxGeometry x="872" y="1110" width="200" height="50" as="geometry" />
        </mxCell>
        <mxCell id="0LnKOVC-JupL4AvzDja9-76" style="edgeStyle=orthogonalEdgeStyle;rounded=0;orthogonalLoop=1;jettySize=auto;html=1;entryX=0.077;entryY=1.056;entryDx=0;entryDy=0;entryPerimeter=0;" edge="1" parent="1" source="0LnKOVC-JupL4AvzDja9-74" target="13">
          <mxGeometry relative="1" as="geometry" />
        </mxCell>
        <mxCell id="0LnKOVC-JupL4AvzDja9-77" value="sizebox" style="rounded=1;fillColor=#10739E;strokeColor=none;shadow=1;gradientColor=none;fontStyle=1;fontColor=#FFFFFF;fontSize=14;" vertex="1" parent="1">
          <mxGeometry x="1060" y="1370" width="200" height="50" as="geometry" />
        </mxCell>
        <mxCell id="0LnKOVC-JupL4AvzDja9-78" style="edgeStyle=orthogonalEdgeStyle;rounded=0;orthogonalLoop=1;jettySize=auto;html=1;entryX=0.677;entryY=1.111;entryDx=0;entryDy=0;entryPerimeter=0;" edge="1" parent="1" source="0LnKOVC-JupL4AvzDja9-77" target="13">
          <mxGeometry relative="1" as="geometry" />
        </mxCell>
        <mxCell id="0LnKOVC-JupL4AvzDja9-80" style="edgeStyle=orthogonalEdgeStyle;rounded=0;orthogonalLoop=1;jettySize=auto;html=1;entryX=0.843;entryY=1.189;entryDx=0;entryDy=0;entryPerimeter=0;" edge="1" parent="1" source="0LnKOVC-JupL4AvzDja9-79" target="13">
          <mxGeometry relative="1" as="geometry">
            <mxPoint x="1130" y="1020" as="targetPoint" />
          </mxGeometry>
        </mxCell>
        <mxCell id="0LnKOVC-JupL4AvzDja9-79" value="Container" style="rounded=1;fillColor=#10739E;strokeColor=none;shadow=1;gradientColor=none;fontStyle=1;fontColor=#FFFFFF;fontSize=14;" vertex="1" parent="1">
          <mxGeometry x="1500" y="1110" width="200" height="50" as="geometry" />
        </mxCell>
      </root>
    </mxGraphModel>
  </diagram>
</mxfile>
